<svg xmlns="http://www.w3.org/2000/svg" viewBox="0 0 64 64" id="ps-wireless-game-control">
    <g data-name="Ps3 wireless game control">
        <path fill="#252c3c" fill-rule="evenodd"
              d="M63,42.3c-.13-1.53-1.82-14.4-2.08-16.36a11.36,11.36,0,0,0-4.29-7.75H7.41a11.36,11.36,0,0,0-4.29,7.75C2.86,27.9,1.17,40.78,1,42.3s-.22,7.22,5,8S14,46.43,14,46.43l4.22-7.3a4.3,4.3,0,0,0,7.14-1.66l13.51,0a4.29,4.29,0,0,0,7.21,1.63l4,7.37s2.73,4.74,7.94,3.91S63.09,43.82,63,42.3Z"></path>
        <path fill="#252c3c" fill-rule="evenodd"
              d="M18 16.41a3.11 3.11 0 0 0-3.1-2.85H11.69a3.11 3.11 0 0 0-3.1 2.85l-.75 8.8a1 1 0 0 0 1 1.08h8.93a1 1 0 0 0 1-1.08zM55.34 16.41a3.12 3.12 0 0 0-3.1-2.85H49a3.12 3.12 0 0 0-3.1 2.85l-.74 8.8a1 1 0 0 0 1 1.08h8.93a1 1 0 0 0 1-1.08z"></path>
        <path fill="#313b51" fill-rule="evenodd"
              d="M50.47 15.58A9.44 9.44 0 1 0 59.9 25 9.44 9.44 0 0 0 50.47 15.58zM13.55 15.58A9.44 9.44 0 1 0 23 25 9.44 9.44 0 0 0 13.55 15.58z"></path>
        <path fill="#e4e9f6" fill-rule="evenodd"
              d="M55.65 22.68A2.31 2.31 0 1 0 58 25 2.31 2.31 0 0 0 55.65 22.68zM45.47 22.68A2.31 2.31 0 1 0 47.77 25 2.31 2.31 0 0 0 45.47 22.68z"></path>
        <path fill="#52b36b" fill-rule="evenodd"
              d="M50.56 17.59a2.31 2.31 0 1 0 2.3 2.3A2.32 2.32 0 0 0 50.56 17.59zM50.56 27.78a2.3 2.3 0 1 0 2.3 2.3A2.31 2.31 0 0 0 50.56 27.78z"></path>
        <path fill="#313b51" fill-rule="evenodd"
              d="M32,28.66a3.39,3.39,0,1,0,3.38,3.39A3.39,3.39,0,0,0,32,28.66Z"></path>
        <path fill="#e4e9f6" fill-rule="evenodd"
              d="M28.38,21.23a1.7,1.7,0,0,0-.37-.1,4.1,4.1,0,0,0-.49-.06l-.31,0-.15,0L27,21a.09.09,0,0,1,0-.07.36.36,0,0,1,0-.09.18.18,0,0,1,.07-.05l.11,0,.29,0a2.34,2.34,0,0,1,.38,0,1.38,1.38,0,0,1,.27.08.45.45,0,0,1,.17.11.32.32,0,0,1,.09.17v0h.25V20.5h-.26v.06s0,0,0,0h0l-.08,0a1.48,1.48,0,0,0-.41-.12,1.54,1.54,0,0,0-.3,0,2.33,2.33,0,0,0-.38,0,1.48,1.48,0,0,0-.35.13.66.66,0,0,0-.2.14.43.43,0,0,0-.14.32.36.36,0,0,0,.11.26.91.91,0,0,0,.19.13,1.56,1.56,0,0,0,.37.1c.15,0,.31,0,.47.06l.33.05a.67.67,0,0,1,.19.05l.08,0a.1.1,0,0,1,.05.08s0,0,0,0,0,.05-.05.06a.42.42,0,0,1-.14.09.71.71,0,0,1-.29.05,1.59,1.59,0,0,1-.38,0,1.38,1.38,0,0,1-.29-.08.57.57,0,0,1-.21-.13.35.35,0,0,1-.12-.19v-.05a1.31,1.31,0,0,0-.28,0s0,.65,0,.67h.28v-.11h.08l.07,0a3.9,3.9,0,0,0,.57.13.55.55,0,0,0,.18,0l.3,0a1.35,1.35,0,0,0,.33-.09.94.94,0,0,0,.26-.14.48.48,0,0,0,.16-.41.45.45,0,0,0-.16-.31A.82.82,0,0,0,28.38,21.23Zm5.25-.68h0v.24h.25l.07,0a.1.1,0,0,1,0,.08v.71h0l-.91-.83-.22-.2h-.9v.22h.28s0,0,0,0V22a0,0,0,0,1,0,0h-.27v.24h1V22h-.31l0,0v-.93h0l1.3,1.17h.39V20.88c0-.06,0-.09.09-.09h.24v-.24h-1Zm2.92,0v.24h0a.48.48,0,0,0,.12,0,.05.05,0,0,1,0,0s0,0,0,0h0c-.13.15-.26.3-.4.44v0h0l-.36-.39,0-.05s0,0,0,0,0,0,0,0h.15a1,1,0,0,0,0-.24h-1.2v.24h.29l0,0,.73.8a0,0,0,0,1,0,0V22a0,0,0,0,1,0,0h-.27v.22h1.18V22h-.3s0,0,0,0h0v-.32s0,0,0,0l.78-.82s0,0,0,0h.26v-.24Zm-5.06.27a1.46,1.46,0,0,0-.38-.27,1.76,1.76,0,0,0-.64-.15,1.87,1.87,0,0,0-.53.05,1.58,1.58,0,0,0-.49.23,1.1,1.1,0,0,0-.28.29.73.73,0,0,0-.11.38.78.78,0,0,0,.09.37,1.06,1.06,0,0,0,.3.33,1.53,1.53,0,0,0,.77.28h.29a1.64,1.64,0,0,0,.32,0,1.52,1.52,0,0,0,.5-.23,1,1,0,0,0,.3-.35.77.77,0,0,0,.06-.52A1,1,0,0,0,31.49,20.82Zm-.45.89a.65.65,0,0,1-.35.26h0a.88.88,0,0,1-.33.06.82.82,0,0,1-.49-.16.72.72,0,0,1-.25-.32.57.57,0,0,1,.1-.56.7.7,0,0,1,.37-.26.83.83,0,0,1,.6,0l.19.08a.63.63,0,0,1,.26.32A.57.57,0,0,1,31,21.71Z"></path>
        <path fill="#52b36b" fill-rule="evenodd"
              d="M19.34 22.82h-.19a9.38 9.38 0 0 0-2.52.38 6.86 6.86 0 0 0-1.39 1.56l-.06.09a.3.3 0 0 0 0 .1.29.29 0 0 0 0 .18l.05.06a6.65 6.65 0 0 0 1.39 1.56 9 9 0 0 0 2.52.38h.19C20.4 27 20.4 25.59 20.4 25S20.4 22.89 19.34 22.82zM15.19 28.17a6.86 6.86 0 0 0-1.55-1.39l-.06 0-.11 0a.34.34 0 0 0-.22.05l0 0a6.84 6.84 0 0 0-1.55 1.39 8.9 8.9 0 0 0-.38 2.72C11.36 32 12.8 32 13.43 32h0c.62 0 2.06 0 2.14-1.06A8.9 8.9 0 0 0 15.19 28.17zM11.65 24.81a.21.21 0 0 0 0-.06 6.86 6.86 0 0 0-1.39-1.56 9.38 9.38 0 0 0-2.52-.38H7.51c-1.06.07-1.06 1.52-1.06 2.15s0 2.07 1.06 2.15H7.7a9 9 0 0 0 2.52-.38 6.46 6.46 0 0 0 1.39-1.56l0 0a.3.3 0 0 0 0-.15A.39.39 0 0 0 11.65 24.81zM15.57 19C15.49 18 14 18 13.42 18S11.36 18 11.28 19a9.22 9.22 0 0 0 .37 2.72 6.86 6.86 0 0 0 1.56 1.39.18.18 0 0 0 .07.05.27.27 0 0 0 .12 0h0l.13 0 .09-.06a6.61 6.61 0 0 0 1.55-1.39A8.9 8.9 0 0 0 15.57 19z"></path>
        <path fill="#546680" fill-rule="evenodd"
              d="M42.92 32.72a3.37 3.37 0 1 0 3.36 3.36A3.37 3.37 0 0 0 42.92 32.72zM21.28 32.72a3.37 3.37 0 1 0 3.36 3.36A3.37 3.37 0 0 0 21.28 32.72z"></path>
        <path fill="#252c3c" fill-rule="evenodd"
              d="M32,29a3.09,3.09,0,1,0,3.08,3.09A3.08,3.08,0,0,0,32,29Zm-.79,4.25s0,0-.07.06a2.65,2.65,0,0,1-1.42-.16.3.3,0,0,1-.11-.06c-.18-.12-.18-.29,0-.4a1.19,1.19,0,0,1,.25-.13L31.21,32v.47s-.05,0-.08,0l-.74.27-.16.09v0c.06,0,.11,0,.16,0a3.4,3.4,0,0,0,.46-.06,3.17,3.17,0,0,0,.36-.13C31.21,33,31.22,33.08,31.21,33.21Zm1-2.59a.57.57,0,0,0,0,.13v3l-.79-.25a.08.08,0,0,1,0-.07.28.28,0,0,1,0-.09c0-1.12,0-2.24,0-3.36v-.13l.2,0c.36.11.73.21,1.09.33.09,0,.18.08.27.12a1,1,0,0,1,.49.73,1.7,1.7,0,0,1,0,.67.54.54,0,0,1-.82.3s0-.08,0-.11V30.79a.51.51,0,0,0-.06-.22.21.21,0,0,0-.15-.07A.24.24,0,0,0,32.2,30.62Zm2.18,2.29a1.84,1.84,0,0,1-.4.19l-1.56.56-.09,0c0-.16,0-.3,0-.44s.05-.06.08-.08l1.14-.41.15,0,.07-.08s-.05-.05-.08-.06a.85.85,0,0,0-.5,0l-.73.26-.13,0v-.47s0,0,.07-.06a2.71,2.71,0,0,1,1.9.07l.07,0C34.56,32.62,34.57,32.78,34.38,32.91Z"></path>
        <rect width="2.99" height="2.11" x="25.4" y="24.72" fill="#546680" rx=".32" ry=".32"></rect>
        <polygon fill="#546680" fill-rule="evenodd" points="35.87 24.72 35.87 26.83 38.47 25.73 35.87 24.72"></polygon>
    </g>
</svg>